<svg width="16" height="16" viewBox="0 0 16 16" fill="none" xmlns="http://www.w3.org/2000/svg">
<path d="M11.9213 12.8646C10.7488 13.6084 9.38848 14.0022 7.99999 14C4.40532 14 1.41466 11.4133 0.787323 7.99998C1.07401 6.44713 1.85508 5.02858 3.01399 3.95598L0.92799 1.87198L1.87132 0.92865L15.0707 14.1286L14.1273 15.0713L11.9213 12.8646ZM3.95666 4.89998C3.05066 5.72371 2.41953 6.80584 2.14866 7.99998C2.35685 8.91095 2.77483 9.76075 3.36932 10.4817C3.96382 11.2027 4.71841 11.7749 5.57302 12.1529C6.42764 12.5308 7.35869 12.704 8.29205 12.6587C9.22541 12.6134 10.1353 12.3509 10.9493 11.892L9.59732 10.54C9.02178 10.9025 8.34012 11.0587 7.66415 10.9829C6.98817 10.9072 6.35802 10.6039 5.87704 10.1229C5.39606 9.64196 5.09281 9.0118 5.01703 8.33582C4.94125 7.65985 5.09745 6.97819 5.45999 6.40265L3.95666 4.89998ZM8.60932 9.55198L6.44799 7.39065C6.32937 7.69261 6.30145 8.02262 6.36766 8.34021C6.43387 8.65781 6.59133 8.94917 6.82074 9.17857C7.05014 9.40797 7.3415 9.56543 7.65909 9.63165C7.97669 9.69786 8.30737 9.67061 8.60932 9.55198ZM13.8713 11.0613L12.9173 10.108C13.363 9.47285 13.6803 8.75677 13.8513 7.99998C13.6701 7.20647 13.3295 6.45808 12.8501 5.80031C12.3707 5.14254 11.7625 4.58913 11.0626 4.17372C10.3626 3.7583 9.58552 3.48956 8.77848 3.38383C7.97144 3.27809 7.15133 3.33757 6.36799 3.55865L5.31599 2.50665C6.14732 2.17998 7.05332 1.99998 7.99999 1.99998C11.5947 1.99998 14.5853 4.58665 15.2127 7.99998C15.0084 9.11045 14.5492 10.1584 13.8713 11.0613ZM7.81532 5.00532C8.23966 4.97909 8.66473 5.04336 9.06235 5.19386C9.45997 5.34436 9.82106 5.57766 10.1217 5.87828C10.4223 6.17891 10.6556 6.54 10.8061 6.93762C10.9566 7.33524 11.0209 7.76031 10.9947 8.18465L7.81532 5.00532Z" fill="#9E9E9E"/>
</svg>
